<?xml version="1.0" encoding="UTF-8"?>
<svg xmlns="http://www.w3.org/2000/svg" xmlns:xlink="http://www.w3.org/1999/xlink" width="188pt" height="150pt" viewBox="0 0 188 150" version="1.1">
<g id="surface1">
<path style=" stroke:none;fill-rule:nonzero;fill:rgb(0%,0%,0%);fill-opacity:1;" d="M 181.285156 89.0625 C 181.285156 122.726562 142.21875 150 94 150 C 45.78125 150 6.714844 122.726562 6.714844 89.0625 C 6.714844 58.59375 38.734375 33.339844 80.570312 28.859375 L 80.570312 18.75 L 68.820312 18.75 C 66.050781 18.75 63.785156 17.167969 63.785156 15.234375 L 63.785156 3.515625 C 63.785156 1.582031 66.050781 0 68.820312 0 L 119.179688 0 C 121.949219 0 124.214844 1.582031 124.214844 3.515625 L 124.214844 15.234375 C 124.214844 17.167969 121.949219 18.75 119.179688 18.75 L 107.429688 18.75 L 107.429688 28.859375 C 123.164062 30.554688 137.515625 35.1875 149.265625 41.921875 L 160.808594 33.867188 C 162.78125 32.492188 165.96875 32.492188 167.941406 33.867188 L 179.816406 42.15625 C 181.789062 43.535156 181.789062 45.761719 179.816406 47.140625 L 167.480469 55.75 L 167.226562 55.929688 C 176.125 65.421875 181.285156 76.816406 181.285156 89.0625 Z M 107.429688 99.609375 L 107.429688 55.226562 C 107.429688 53.289062 105.164062 51.710938 102.394531 51.710938 L 85.605469 51.710938 C 82.835938 51.710938 80.570312 53.289062 80.570312 55.226562 L 80.570312 99.609375 C 80.570312 101.542969 82.835938 103.125 85.605469 103.125 L 102.394531 103.125 C 105.164062 103.125 107.429688 101.542969 107.429688 99.609375 Z M 107.429688 99.609375 "/>
</g>
</svg>
